<svg width="201" height="205" viewBox="0 0 201 205" xmlns="http://www.w3.org/2000/svg"><title>Combined Shape</title><path d="M100.653 204.956c55.228 0 100-45.881 100-102.478C200.653 45.88 155.88 0 100.653 0c-55.229 0-100 45.88-100 102.478 0 56.597 44.771 102.478 100 102.478zM155.9 58.039H45.155c-2.489 0-4.729 1.015-6.47 2.538l61.968 54.063 61.719-54.063c-1.742-1.523-3.982-2.538-6.47-2.538zm-35.339 47.971l44.796 38.58V66.415l-44.796 39.595zm-19.91 18.021l-15.927-14.214-45.792 40.103c1.742 1.523 3.982 2.538 6.47 2.538H156.15c2.489 0 4.729-1.015 6.47-2.538l-45.791-40.103-16.176 14.214zM35.948 66.415v78.175l44.796-38.58-44.796-39.595z" fill="#D7B740" fill-rule="evenodd"/></svg>