<svg width="200" height="193" viewBox="0 0 200 193" xmlns="http://www.w3.org/2000/svg"><title>github</title><path d="M186.52 48.785c-8.783-15.245-21.184-26.933-36.167-35.572C134.853 4.573 118.319 0 100.235 0 82.152 0 65.618 4.574 50.118 13.213S22.734 34.048 13.95 48.785C5.167 64.031.517 80.292.517 98.08c0 21.343 6.2 40.654 19.117 57.932 12.917 17.278 28.934 28.967 49.084 35.573 2.583.508 4.133 0 5.167-1.016 1.033-1.017 1.55-2.541 1.55-4.066v-18.294l-3.1.508c-2.067.508-4.134.508-7.234.508-3.1 0-5.683-.508-9.3-1.016-3.1-.509-6.2-2.033-8.783-4.066-2.584-2.033-4.65-4.573-5.684-7.623l-1.55-3.049c-1.033-2.032-2.067-4.065-4.133-6.606-2.067-2.54-3.617-4.065-5.684-5.082l-1.033-.508-1.55-1.524c-.517-.509-1.034-1.017-1.034-2.033-.516-.508 0-1.017.517-1.525s2.067-.508 3.617-.508l2.583.508c1.55.508 4.134 1.525 6.2 3.05 2.584 1.524 4.65 4.065 6.2 6.606 2.067 3.557 4.65 6.098 7.234 8.13 2.583 2.033 5.683 2.541 8.267 2.541 3.1 0 5.167 0 7.233-.508 2.067-.508 4.134-1.016 5.684-2.032 1.033-5.59 3.1-10.164 6.2-13.213-5.167-.508-9.3-1.525-13.434-2.541-4.133-1.016-8.267-2.54-12.4-5.082-4.133-2.54-7.75-5.082-10.334-8.639-2.583-3.557-5.166-8.13-6.716-13.213 0-4.573-1.034-10.671-1.034-18.294 0-10.164 3.617-19.31 10.334-26.425-3.1-7.623-3.1-16.262 1.033-25.918 2.584-1.016 6.2 0 11.367 1.525 5.167 2.033 8.784 3.557 10.85 5.082 2.067 1.524 4.134 2.54 5.684 3.557 8.267-2.033 16.533-3.557 24.8-3.557 8.784 0 17.05 1.016 24.8 3.557l5.167-3.05c3.617-2.032 7.234-4.065 11.884-5.59 4.65-1.524 8.267-2.032 10.334-1.524 4.133 9.656 4.133 18.295 1.033 25.918 6.717 7.114 10.333 16.261 10.333 26.425 0 7.114-1.033 13.72-2.583 19.31-1.55 5.59-4.133 10.164-6.717 13.213-2.583 3.558-6.2 6.099-10.333 8.64-4.134 2.54-8.267 4.065-12.4 5.081-4.134 1.017-8.267 2.033-13.434 2.541 4.65 4.066 6.717 9.656 6.717 18.295v26.933c0 1.525.516 3.05 1.55 4.066 1.033 1.016 2.583 1.524 5.166 1.016 20.15-6.606 36.685-18.294 49.085-35.573 12.917-17.278 19.117-36.589 19.117-57.932 0-18.295-4.65-34.556-13.434-49.802z" fill="#D7B740" fill-rule="evenodd"/></svg>