<svg width="200" height="200" viewBox="0 0 200 200" xmlns="http://www.w3.org/2000/svg"><title>linkedin</title><g fill="none" fill-rule="evenodd"><path d="M99.786 0C44.646 0 0 44.628 0 99.746c0 55.118 44.646 99.746 99.786 99.746s99.785-44.628 99.785-99.746C199.571 44.628 154.926 0 99.786 0zM73.46 148.82H49.626V77.164h23.835v71.654zM61.543 67.385c-8.182 0-13.34-5.511-13.34-12.446 0-7.112 5.336-12.446 13.518-12.446s13.163 5.334 13.34 12.446c0 6.935-5.336 12.446-13.518 12.446zm97.83 81.433h-23.835v-38.227c0-9.601-3.38-16.18-12.096-16.18-6.58 0-10.494 4.445-12.273 8.712-.533 1.6-.711 3.556-.711 5.868v40.005H86.623s.356-64.897 0-71.654h23.835v10.135c3.202-4.8 8.893-11.913 21.522-11.913 15.653 0 27.392 10.313 27.392 32.36v40.894z" fill="#D7B740"/><path d="M110.503 87.3v.223h-.223s.223 0 .223-.223z" fill="#007AB9"/></g></svg>