<svg id="Layer_1" data-name="Layer 1" xmlns="http://www.w3.org/2000/svg" viewBox="0 0 438.11 300.3"><defs><style>.logo{fill:#fff}</style></defs><title>M-Logo</title><path class="logo" d="M372.53 311.61L313 439l-62.5-127.07L95.05 611.5c1.39.17 1.92.3 2.45.3q88.55 0 177.1.09c3.18 0 4.54-1.19 5.75-3.87 5.9-13 12-25.85 18-38.75 5.07-10.85 10.18-21.69 15.61-33.24 11.87 24.15 23.44 47.45 34.73 70.89 1.78 3.69 3.77 5 7.92 5q85.21-.23 170.42-.1h6.13zm-83.53 179q-17.86 37.89-35.52 75.87c-.94 2-1.62 3.66-4.62 3.64-28-.16-56.05-.09-85.08-.09l85.69-165.16c13.36 27.13 26.42 53.6 39.53 80.08a5.81 5.81 0 0 1 0 5.66zm92 79.49c-2.85 0-4.1-.95-5.33-3.47q-18.59-38.13-37.5-76.11a6.37 6.37 0 0 1-.16-6.21q18.19-38.62 36.18-77.31c.14-.3.54-.47 1.29-1.09L463.3 570c-28.12 0-55.2 0-82.3.1z" transform="translate(-95.05 -311.61)"/></svg>