<svg xmlns="http://www.w3.org/2000/svg" viewBox="0 0 317.461 317.461" width="512" height="512"><path d="M317.09 79.358c.109-.158.201-.326.261-.511.022-.076.022-.158.043-.245.033-.163.065-.343.049-.511 0-.027.022-.054.016-.082-.016-.092-.054-.163-.076-.256-.016-.098-.016-.212-.06-.31-.011-.038-.038-.065-.06-.098-.054-.114-.114-.201-.174-.294-.082-.114-.158-.234-.256-.343-.076-.065-.147-.114-.228-.185a1.975 1.975 0 0 0-.386-.234.904.904 0 0 0-.277-.092 1.754 1.754 0 0 0-.451-.092s-.092-.027-.131-.027h-.082L2.049 86.5a2.121 2.121 0 0 0-2.023 1.795 2.124 2.124 0 0 0 1.387 2.317l69.723 24.585 20.233 124.408c.044.272.136.522.272.74.022.038.044.054.065.082.174.267.419.479.685.636.038.016.054.071.092.087.038.027.071.011.098.027.267.12.555.207.865.207h.016a1.958 1.958 0 0 0 1.191-.391c.016-.011.038 0 .049-.011L308.034 84.933l8.382-4.895c.06-.033.092-.082.136-.114.169-.12.326-.239.451-.402.033-.055.055-.109.087-.164zM92.256 121.62c-.027.033-.06.044-.087.082a2.068 2.068 0 0 0-.479 1.05c-.005.038-.044.065-.044.098 0 .022.011.044.005.071 0 .054-.022.109-.022.163l-.218 90.419-15.964-98.11 157.804-23.056-139.929 28.684c-.424.088-.778.316-1.066.599zm211.052-38.83l-128.221 74.967-74.537-33.891L303.308 82.79zm-25.58-1.229L73.235 111.449 13.4 90.345l264.328-8.784z" fill="#d7b740"/></svg>